<svg width="20" height="25" viewBox="0 0 20 25" fill="none" xmlns="http://www.w3.org/2000/svg">
<path d="M19.7143 7.39258H0V22.1783C0 23.5337 1.10893 24.6426 2.46429 24.6426H17.25C18.6054 24.6426 19.7143 23.5337 19.7143 22.1783V7.39258Z" fill="#9D9D9D"/>
<path d="M17.25 0H2.46429C1.10893 0 0 1.10893 0 2.46429V8.00893H19.7143V2.46429C19.7143 1.10893 18.6054 0 17.25 0Z" fill="#CFCFCF"/>
<path d="M17.2499 6.16113H2.46422C2.09457 6.16113 1.84814 5.91471 1.84814 5.54506V2.4647C1.84814 2.09506 2.09457 1.84863 2.46422 1.84863H17.2499C17.6196 1.84863 17.866 2.09506 17.866 2.4647V5.54506C17.866 5.91471 17.6196 6.16113 17.2499 6.16113Z" fill="#EAE3D1"/>
<path d="M15.4019 3.69531H16.634V4.92746H15.4019V3.69531Z" fill="#F58613"/>
<path d="M12.9375 3.69531H14.1696V4.92746H12.9375V3.69531Z" fill="#F58613"/>
<path d="M17.2499 11.7055H15.4017C15.0321 11.7055 14.7856 11.4591 14.7856 11.0894V9.85728C14.7856 9.48764 15.0321 9.24121 15.4017 9.24121H17.2499C17.6196 9.24121 17.866 9.48764 17.866 9.85728V11.0894C17.866 11.4591 17.6196 11.7055 17.2499 11.7055Z" fill="#FF5252"/>
<path d="M4.31243 11.7065H2.46422C2.09457 11.7065 1.84814 11.46 1.84814 11.0904V9.85826C1.84814 9.48862 2.09457 9.24219 2.46422 9.24219H4.31243C4.68207 9.24219 4.9285 9.48862 4.9285 9.85826V11.0904C4.9285 11.46 4.68207 11.7065 4.31243 11.7065Z" fill="#E0E0E0"/>
<path d="M8.62493 11.7065H6.77672C6.40707 11.7065 6.16064 11.46 6.16064 11.0904V9.85826C6.16064 9.48862 6.40707 9.24219 6.77672 9.24219H8.62493C8.99457 9.24219 9.241 9.48862 9.241 9.85826V11.0904C9.241 11.46 8.99457 11.7065 8.62493 11.7065Z" fill="#E0E0E0"/>
<path d="M12.9374 11.7065H11.0892C10.7196 11.7065 10.4731 11.46 10.4731 11.0904V9.85826C10.4731 9.48862 10.7196 9.24219 11.0892 9.24219H12.9374C13.3071 9.24219 13.5535 9.48862 13.5535 9.85826V11.0904C13.5535 11.46 13.3071 11.7065 12.9374 11.7065Z" fill="#E0E0E0"/>
<path d="M4.31243 15.4028H2.46422C2.09457 15.4028 1.84814 15.1563 1.84814 14.7867V13.5545C1.84814 13.1849 2.09457 12.9385 2.46422 12.9385H4.31243C4.68207 12.9385 4.9285 13.1849 4.9285 13.5545V14.7867C4.9285 15.1563 4.68207 15.4028 4.31243 15.4028Z" fill="#E0E0E0"/>
<path d="M8.62493 15.4028H6.77672C6.40707 15.4028 6.16064 15.1563 6.16064 14.7867V13.5545C6.16064 13.1849 6.40707 12.9385 6.77672 12.9385H8.62493C8.99457 12.9385 9.241 13.1849 9.241 13.5545V14.7867C9.241 15.1563 8.99457 15.4028 8.62493 15.4028Z" fill="#E0E0E0"/>
<path d="M12.9374 15.4028H11.0892C10.7196 15.4028 10.4731 15.1563 10.4731 14.7867V13.5545C10.4731 13.1849 10.7196 12.9385 11.0892 12.9385H12.9374C13.3071 12.9385 13.5535 13.1849 13.5535 13.5545V14.7867C13.5535 15.1563 13.3071 15.4028 12.9374 15.4028Z" fill="#E0E0E0"/>
<path d="M4.31243 19.0991H2.46422C2.09457 19.0991 1.84814 18.8526 1.84814 18.483V17.2508C1.84814 16.8812 2.09457 16.6348 2.46422 16.6348H4.31243C4.68207 16.6348 4.9285 16.8812 4.9285 17.2508V18.483C4.9285 18.8526 4.68207 19.0991 4.31243 19.0991Z" fill="#E0E0E0"/>
<path d="M8.62493 19.0991H6.77672C6.40707 19.0991 6.16064 18.8526 6.16064 18.483V17.2508C6.16064 16.8812 6.40707 16.6348 6.77672 16.6348H8.62493C8.99457 16.6348 9.241 16.8812 9.241 17.2508V18.483C9.241 18.8526 8.99457 19.0991 8.62493 19.0991Z" fill="#E0E0E0"/>
<path d="M12.9374 19.0991H11.0892C10.7196 19.0991 10.4731 18.8526 10.4731 18.483V17.2508C10.4731 16.8812 10.7196 16.6348 11.0892 16.6348H12.9374C13.3071 16.6348 13.5535 16.8812 13.5535 17.2508V18.483C13.5535 18.8526 13.3071 19.0991 12.9374 19.0991Z" fill="#E0E0E0"/>
<path d="M4.31243 22.7953H2.46422C2.09457 22.7953 1.84814 22.5489 1.84814 22.1793V20.9471C1.84814 20.5775 2.09457 20.3311 2.46422 20.3311H4.31243C4.68207 20.3311 4.9285 20.5775 4.9285 20.9471V22.1793C4.9285 22.5489 4.68207 22.7953 4.31243 22.7953Z" fill="#E0E0E0"/>
<path d="M8.62493 22.7953H6.77672C6.40707 22.7953 6.16064 22.5489 6.16064 22.1793V20.9471C6.16064 20.5775 6.40707 20.3311 6.77672 20.3311H8.62493C8.99457 20.3311 9.241 20.5775 9.241 20.9471V22.1793C9.241 22.5489 8.99457 22.7953 8.62493 22.7953Z" fill="#E0E0E0"/>
<path d="M12.9374 22.7953H11.0892C10.7196 22.7953 10.4731 22.5489 10.4731 22.1793V20.9471C10.4731 20.5775 10.7196 20.3311 11.0892 20.3311H12.9374C13.3071 20.3311 13.5535 20.5775 13.5535 20.9471V22.1793C13.5535 22.5489 13.3071 22.7953 12.9374 22.7953Z" fill="#E0E0E0"/>
<path d="M17.2499 15.4018H15.4017C15.0321 15.4018 14.7856 15.1554 14.7856 14.7857V13.5536C14.7856 13.1839 15.0321 12.9375 15.4017 12.9375H17.2499C17.6196 12.9375 17.866 13.1839 17.866 13.5536V14.7857C17.866 15.1554 17.6196 15.4018 17.2499 15.4018Z" fill="#BDBDBD"/>
<path d="M17.2499 19.0981H15.4017C15.0321 19.0981 14.7856 18.8516 14.7856 18.482V17.2499C14.7856 16.8802 15.0321 16.6338 15.4017 16.6338H17.2499C17.6196 16.6338 17.866 16.8802 17.866 17.2499V18.482C17.866 18.8516 17.6196 19.0981 17.2499 19.0981Z" fill="#BDBDBD"/>
<path d="M17.2499 22.7944H15.4017C15.0321 22.7944 14.7856 22.5479 14.7856 22.1783V20.9461C14.7856 20.5765 15.0321 20.3301 15.4017 20.3301H17.2499C17.6196 20.3301 17.866 20.5765 17.866 20.9461V22.1783C17.866 22.5479 17.6196 22.7944 17.2499 22.7944Z" fill="#BDBDBD"/>
</svg>
