<svg width="21" height="25" viewBox="0 0 21 25" fill="none" xmlns="http://www.w3.org/2000/svg">
<rect width="21" height="25" fill="black"/>
<g clip-path="url(#clip0_0_1)" filter="url(#filter0_d_0_1)">
<rect width="1920" height="6042" transform="translate(-1013 -707)" fill="white"/>
<g filter="url(#filter1_d_0_1)">
<path d="M-878 -189C-878 -194.523 -873.523 -199 -868 -199H362C367.523 -199 372 -194.523 372 -189V82C372 87.5228 367.523 92 362 92H-868C-873.523 92 -878 87.5228 -878 82V-189Z" fill="white"/>
<path d="M-878 -189C-878 -194.523 -873.523 -199 -868 -199H362C367.523 -199 372 -194.523 372 -189V82C372 87.5228 367.523 92 362 92H-868C-873.523 92 -878 87.5228 -878 82V-189Z" stroke="#C2D1CA"/>
</g>
<g filter="url(#filter2_d_0_1)">
<rect x="-34" y="-16" width="264" height="56" rx="10" fill="#F7F7F7"/>
</g>
<circle cx="10" cy="12" r="18" fill="#FFD66D"/>
<path d="M20.4286 7.39258H0.714355V22.1783C0.714355 23.5337 1.82328 24.6426 3.17864 24.6426H17.9644C19.3197 24.6426 20.4286 23.5337 20.4286 22.1783V7.39258Z" fill="#9D9D9D"/>
<path d="M17.9644 0H3.17864C1.82328 0 0.714355 1.10893 0.714355 2.46429V8.00893H20.4286V2.46429C20.4286 1.10893 19.3197 0 17.9644 0Z" fill="#CFCFCF"/>
<path d="M17.9643 6.16113H3.17857C2.80893 6.16113 2.5625 5.91471 2.5625 5.54506V2.4647C2.5625 2.09506 2.80893 1.84863 3.17857 1.84863H17.9643C18.3339 1.84863 18.5804 2.09506 18.5804 2.4647V5.54506C18.5804 5.91471 18.3339 6.16113 17.9643 6.16113Z" fill="#EAE3D1"/>
<path d="M16.1162 3.69531H17.3484V4.92746H16.1162V3.69531Z" fill="#F58613"/>
<path d="M13.6519 3.69531H14.884V4.92746H13.6519V3.69531Z" fill="#F58613"/>
<path d="M17.9643 11.7055H16.1161C15.7464 11.7055 15.5 11.4591 15.5 11.0894V9.85728C15.5 9.48764 15.7464 9.24121 16.1161 9.24121H17.9643C18.3339 9.24121 18.5804 9.48764 18.5804 9.85728V11.0894C18.5804 11.4591 18.3339 11.7055 17.9643 11.7055Z" fill="#FF5252"/>
<path d="M5.02679 11.7065H3.17857C2.80893 11.7065 2.5625 11.46 2.5625 11.0904V9.85826C2.5625 9.48862 2.80893 9.24219 3.17857 9.24219H5.02679C5.39643 9.24219 5.64286 9.48862 5.64286 9.85826V11.0904C5.64286 11.46 5.39643 11.7065 5.02679 11.7065Z" fill="#E0E0E0"/>
<path d="M9.33929 11.7065H7.49107C7.12143 11.7065 6.875 11.46 6.875 11.0904V9.85826C6.875 9.48862 7.12143 9.24219 7.49107 9.24219H9.33929C9.70893 9.24219 9.95536 9.48862 9.95536 9.85826V11.0904C9.95536 11.46 9.70893 11.7065 9.33929 11.7065Z" fill="#E0E0E0"/>
<path d="M13.6518 11.7065H11.8036C11.4339 11.7065 11.1875 11.46 11.1875 11.0904V9.85826C11.1875 9.48862 11.4339 9.24219 11.8036 9.24219H13.6518C14.0214 9.24219 14.2679 9.48862 14.2679 9.85826V11.0904C14.2679 11.46 14.0214 11.7065 13.6518 11.7065Z" fill="#E0E0E0"/>
<path d="M5.02679 15.4028H3.17857C2.80893 15.4028 2.5625 15.1563 2.5625 14.7867V13.5545C2.5625 13.1849 2.80893 12.9385 3.17857 12.9385H5.02679C5.39643 12.9385 5.64286 13.1849 5.64286 13.5545V14.7867C5.64286 15.1563 5.39643 15.4028 5.02679 15.4028Z" fill="#E0E0E0"/>
<path d="M9.33929 15.4028H7.49107C7.12143 15.4028 6.875 15.1563 6.875 14.7867V13.5545C6.875 13.1849 7.12143 12.9385 7.49107 12.9385H9.33929C9.70893 12.9385 9.95536 13.1849 9.95536 13.5545V14.7867C9.95536 15.1563 9.70893 15.4028 9.33929 15.4028Z" fill="#E0E0E0"/>
<path d="M13.6518 15.4028H11.8036C11.4339 15.4028 11.1875 15.1563 11.1875 14.7867V13.5545C11.1875 13.1849 11.4339 12.9385 11.8036 12.9385H13.6518C14.0214 12.9385 14.2679 13.1849 14.2679 13.5545V14.7867C14.2679 15.1563 14.0214 15.4028 13.6518 15.4028Z" fill="#E0E0E0"/>
<path d="M5.02679 19.0991H3.17857C2.80893 19.0991 2.5625 18.8526 2.5625 18.483V17.2508C2.5625 16.8812 2.80893 16.6348 3.17857 16.6348H5.02679C5.39643 16.6348 5.64286 16.8812 5.64286 17.2508V18.483C5.64286 18.8526 5.39643 19.0991 5.02679 19.0991Z" fill="#E0E0E0"/>
<path d="M9.33929 19.0991H7.49107C7.12143 19.0991 6.875 18.8526 6.875 18.483V17.2508C6.875 16.8812 7.12143 16.6348 7.49107 16.6348H9.33929C9.70893 16.6348 9.95536 16.8812 9.95536 17.2508V18.483C9.95536 18.8526 9.70893 19.0991 9.33929 19.0991Z" fill="#E0E0E0"/>
<path d="M13.6518 19.0991H11.8036C11.4339 19.0991 11.1875 18.8526 11.1875 18.483V17.2508C11.1875 16.8812 11.4339 16.6348 11.8036 16.6348H13.6518C14.0214 16.6348 14.2679 16.8812 14.2679 17.2508V18.483C14.2679 18.8526 14.0214 19.0991 13.6518 19.0991Z" fill="#E0E0E0"/>
<path d="M5.02679 22.7953H3.17857C2.80893 22.7953 2.5625 22.5489 2.5625 22.1793V20.9471C2.5625 20.5775 2.80893 20.3311 3.17857 20.3311H5.02679C5.39643 20.3311 5.64286 20.5775 5.64286 20.9471V22.1793C5.64286 22.5489 5.39643 22.7953 5.02679 22.7953Z" fill="#E0E0E0"/>
<path d="M9.33929 22.7953H7.49107C7.12143 22.7953 6.875 22.5489 6.875 22.1793V20.9471C6.875 20.5775 7.12143 20.3311 7.49107 20.3311H9.33929C9.70893 20.3311 9.95536 20.5775 9.95536 20.9471V22.1793C9.95536 22.5489 9.70893 22.7953 9.33929 22.7953Z" fill="#E0E0E0"/>
<path d="M13.6518 22.7953H11.8036C11.4339 22.7953 11.1875 22.5489 11.1875 22.1793V20.9471C11.1875 20.5775 11.4339 20.3311 11.8036 20.3311H13.6518C14.0214 20.3311 14.2679 20.5775 14.2679 20.9471V22.1793C14.2679 22.5489 14.0214 22.7953 13.6518 22.7953Z" fill="#E0E0E0"/>
<path d="M17.9643 15.4018H16.1161C15.7464 15.4018 15.5 15.1554 15.5 14.7857V13.5536C15.5 13.1839 15.7464 12.9375 16.1161 12.9375H17.9643C18.3339 12.9375 18.5804 13.1839 18.5804 13.5536V14.7857C18.5804 15.1554 18.3339 15.4018 17.9643 15.4018Z" fill="#BDBDBD"/>
<path d="M17.9643 19.0981H16.1161C15.7464 19.0981 15.5 18.8516 15.5 18.482V17.2499C15.5 16.8802 15.7464 16.6338 16.1161 16.6338H17.9643C18.3339 16.6338 18.5804 16.8802 18.5804 17.2499V18.482C18.5804 18.8516 18.3339 19.0981 17.9643 19.0981Z" fill="#BDBDBD"/>
<path d="M17.9643 22.7944H16.1161C15.7464 22.7944 15.5 22.5479 15.5 22.1783V20.9461C15.5 20.5765 15.7464 20.3301 16.1161 20.3301H17.9643C18.3339 20.3301 18.5804 20.5765 18.5804 20.9461V22.1783C18.5804 22.5479 18.3339 22.7944 17.9643 22.7944Z" fill="#BDBDBD"/>
</g>
<defs>
<filter id="filter0_d_0_1" x="-1017" y="-707" width="1928" height="6050" filterUnits="userSpaceOnUse" color-interpolation-filters="sRGB">
<feFlood flood-opacity="0" result="BackgroundImageFix"/>
<feColorMatrix in="SourceAlpha" type="matrix" values="0 0 0 0 0 0 0 0 0 0 0 0 0 0 0 0 0 0 127 0" result="hardAlpha"/>
<feOffset dy="4"/>
<feGaussianBlur stdDeviation="2"/>
<feComposite in2="hardAlpha" operator="out"/>
<feColorMatrix type="matrix" values="0 0 0 0 0 0 0 0 0 0 0 0 0 0 0 0 0 0 0.25 0"/>
<feBlend mode="normal" in2="BackgroundImageFix" result="effect1_dropShadow_0_1"/>
<feBlend mode="normal" in="SourceGraphic" in2="effect1_dropShadow_0_1" result="shape"/>
</filter>
<filter id="filter1_d_0_1" x="-886.5" y="-207.5" width="1271" height="312" filterUnits="userSpaceOnUse" color-interpolation-filters="sRGB">
<feFlood flood-opacity="0" result="BackgroundImageFix"/>
<feColorMatrix in="SourceAlpha" type="matrix" values="0 0 0 0 0 0 0 0 0 0 0 0 0 0 0 0 0 0 127 0" result="hardAlpha"/>
<feOffset dx="2" dy="2"/>
<feGaussianBlur stdDeviation="5"/>
<feComposite in2="hardAlpha" operator="out"/>
<feColorMatrix type="matrix" values="0 0 0 0 0 0 0 0 0 0 0 0 0 0 0 0 0 0 0.25 0"/>
<feBlend mode="normal" in2="BackgroundImageFix" result="effect1_dropShadow_0_1"/>
<feBlend mode="normal" in="SourceGraphic" in2="effect1_dropShadow_0_1" result="shape"/>
</filter>
<filter id="filter2_d_0_1" x="-37" y="-19" width="272" height="64" filterUnits="userSpaceOnUse" color-interpolation-filters="sRGB">
<feFlood flood-opacity="0" result="BackgroundImageFix"/>
<feColorMatrix in="SourceAlpha" type="matrix" values="0 0 0 0 0 0 0 0 0 0 0 0 0 0 0 0 0 0 127 0" result="hardAlpha"/>
<feOffset dx="1" dy="1"/>
<feGaussianBlur stdDeviation="2"/>
<feComposite in2="hardAlpha" operator="out"/>
<feColorMatrix type="matrix" values="0 0 0 0 0 0 0 0 0 0 0 0 0 0 0 0 0 0 0.25 0"/>
<feBlend mode="normal" in2="BackgroundImageFix" result="effect1_dropShadow_0_1"/>
<feBlend mode="normal" in="SourceGraphic" in2="effect1_dropShadow_0_1" result="shape"/>
</filter>
<clipPath id="clip0_0_1">
<rect width="1920" height="6042" fill="white" transform="translate(-1013 -707)"/>
</clipPath>
</defs>
</svg>
