<svg width="36" height="36" viewBox="0 0 36 36" fill="none" xmlns="http://www.w3.org/2000/svg">
<rect width="36" height="36" fill="black"/>
<g clip-path="url(#clip0_0_1)" filter="url(#filter0_d_0_1)">
<rect width="1920" height="6042" transform="translate(-1005 -701)" fill="white"/>
<g filter="url(#filter1_d_0_1)">
<path d="M-870 -183C-870 -188.523 -865.523 -193 -860 -193H370C375.523 -193 380 -188.523 380 -183V88C380 93.5228 375.523 98 370 98H-860C-865.523 98 -870 93.5229 -870 88V-183Z" fill="white"/>
<path d="M-870 -183C-870 -188.523 -865.523 -193 -860 -193H370C375.523 -193 380 -188.523 380 -183V88C380 93.5228 375.523 98 370 98H-860C-865.523 98 -870 93.5229 -870 88V-183Z" stroke="#C2D1CA"/>
</g>
<g filter="url(#filter2_d_0_1)">
<rect x="-26" y="-10" width="264" height="56" rx="10" fill="#F7F7F7"/>
</g>
<circle cx="18" cy="18" r="18" fill="#FFD66D"/>
<path d="M28.4286 13.3926H8.71436V28.1783C8.71436 29.5337 9.82328 30.6426 11.1786 30.6426H25.9644C27.3197 30.6426 28.4286 29.5337 28.4286 28.1783V13.3926Z" fill="#9D9D9D"/>
<path d="M25.9644 6H11.1786C9.82328 6 8.71436 7.10893 8.71436 8.46429V14.0089H28.4286V8.46429C28.4286 7.10893 27.3197 6 25.9644 6Z" fill="#CFCFCF"/>
<path d="M25.9643 12.1611H11.1786C10.8089 12.1611 10.5625 11.9147 10.5625 11.5451V8.4647C10.5625 8.09506 10.8089 7.84863 11.1786 7.84863H25.9643C26.3339 7.84863 26.5804 8.09506 26.5804 8.4647V11.5451C26.5804 11.9147 26.3339 12.1611 25.9643 12.1611Z" fill="#EAE3D1"/>
<path d="M24.1162 9.69531H25.3484V10.9275H24.1162V9.69531Z" fill="#F58613"/>
<path d="M21.6519 9.69531H22.884V10.9275H21.6519V9.69531Z" fill="#F58613"/>
<path d="M25.9643 17.7055H24.1161C23.7464 17.7055 23.5 17.4591 23.5 17.0894V15.8573C23.5 15.4876 23.7464 15.2412 24.1161 15.2412H25.9643C26.3339 15.2412 26.5804 15.4876 26.5804 15.8573V17.0894C26.5804 17.4591 26.3339 17.7055 25.9643 17.7055Z" fill="#FF5252"/>
<path d="M13.0268 17.7065H11.1786C10.8089 17.7065 10.5625 17.46 10.5625 17.0904V15.8583C10.5625 15.4886 10.8089 15.2422 11.1786 15.2422H13.0268C13.3964 15.2422 13.6429 15.4886 13.6429 15.8583V17.0904C13.6429 17.46 13.3964 17.7065 13.0268 17.7065Z" fill="#E0E0E0"/>
<path d="M17.3393 17.7065H15.4911C15.1214 17.7065 14.875 17.46 14.875 17.0904V15.8583C14.875 15.4886 15.1214 15.2422 15.4911 15.2422H17.3393C17.7089 15.2422 17.9554 15.4886 17.9554 15.8583V17.0904C17.9554 17.46 17.7089 17.7065 17.3393 17.7065Z" fill="#E0E0E0"/>
<path d="M21.6518 17.7065H19.8036C19.4339 17.7065 19.1875 17.46 19.1875 17.0904V15.8583C19.1875 15.4886 19.4339 15.2422 19.8036 15.2422H21.6518C22.0214 15.2422 22.2679 15.4886 22.2679 15.8583V17.0904C22.2679 17.46 22.0214 17.7065 21.6518 17.7065Z" fill="#E0E0E0"/>
<path d="M13.0268 21.4028H11.1786C10.8089 21.4028 10.5625 21.1563 10.5625 20.7867V19.5545C10.5625 19.1849 10.8089 18.9385 11.1786 18.9385H13.0268C13.3964 18.9385 13.6429 19.1849 13.6429 19.5545V20.7867C13.6429 21.1563 13.3964 21.4028 13.0268 21.4028Z" fill="#E0E0E0"/>
<path d="M17.3393 21.4028H15.4911C15.1214 21.4028 14.875 21.1563 14.875 20.7867V19.5545C14.875 19.1849 15.1214 18.9385 15.4911 18.9385H17.3393C17.7089 18.9385 17.9554 19.1849 17.9554 19.5545V20.7867C17.9554 21.1563 17.7089 21.4028 17.3393 21.4028Z" fill="#E0E0E0"/>
<path d="M21.6518 21.4028H19.8036C19.4339 21.4028 19.1875 21.1563 19.1875 20.7867V19.5545C19.1875 19.1849 19.4339 18.9385 19.8036 18.9385H21.6518C22.0214 18.9385 22.2679 19.1849 22.2679 19.5545V20.7867C22.2679 21.1563 22.0214 21.4028 21.6518 21.4028Z" fill="#E0E0E0"/>
<path d="M13.0268 25.0991H11.1786C10.8089 25.0991 10.5625 24.8526 10.5625 24.483V23.2508C10.5625 22.8812 10.8089 22.6348 11.1786 22.6348H13.0268C13.3964 22.6348 13.6429 22.8812 13.6429 23.2508V24.483C13.6429 24.8526 13.3964 25.0991 13.0268 25.0991Z" fill="#E0E0E0"/>
<path d="M17.3393 25.0991H15.4911C15.1214 25.0991 14.875 24.8526 14.875 24.483V23.2508C14.875 22.8812 15.1214 22.6348 15.4911 22.6348H17.3393C17.7089 22.6348 17.9554 22.8812 17.9554 23.2508V24.483C17.9554 24.8526 17.7089 25.0991 17.3393 25.0991Z" fill="#E0E0E0"/>
<path d="M21.6518 25.0991H19.8036C19.4339 25.0991 19.1875 24.8526 19.1875 24.483V23.2508C19.1875 22.8812 19.4339 22.6348 19.8036 22.6348H21.6518C22.0214 22.6348 22.2679 22.8812 22.2679 23.2508V24.483C22.2679 24.8526 22.0214 25.0991 21.6518 25.0991Z" fill="#E0E0E0"/>
<path d="M13.0268 28.7953H11.1786C10.8089 28.7953 10.5625 28.5489 10.5625 28.1793V26.9471C10.5625 26.5775 10.8089 26.3311 11.1786 26.3311H13.0268C13.3964 26.3311 13.6429 26.5775 13.6429 26.9471V28.1793C13.6429 28.5489 13.3964 28.7953 13.0268 28.7953Z" fill="#E0E0E0"/>
<path d="M17.3393 28.7953H15.4911C15.1214 28.7953 14.875 28.5489 14.875 28.1793V26.9471C14.875 26.5775 15.1214 26.3311 15.4911 26.3311H17.3393C17.7089 26.3311 17.9554 26.5775 17.9554 26.9471V28.1793C17.9554 28.5489 17.7089 28.7953 17.3393 28.7953Z" fill="#E0E0E0"/>
<path d="M21.6518 28.7953H19.8036C19.4339 28.7953 19.1875 28.5489 19.1875 28.1793V26.9471C19.1875 26.5775 19.4339 26.3311 19.8036 26.3311H21.6518C22.0214 26.3311 22.2679 26.5775 22.2679 26.9471V28.1793C22.2679 28.5489 22.0214 28.7953 21.6518 28.7953Z" fill="#E0E0E0"/>
<path d="M25.9643 21.4018H24.1161C23.7464 21.4018 23.5 21.1554 23.5 20.7857V19.5536C23.5 19.1839 23.7464 18.9375 24.1161 18.9375H25.9643C26.3339 18.9375 26.5804 19.1839 26.5804 19.5536V20.7857C26.5804 21.1554 26.3339 21.4018 25.9643 21.4018Z" fill="#BDBDBD"/>
<path d="M25.9643 25.0981H24.1161C23.7464 25.0981 23.5 24.8516 23.5 24.482V23.2499C23.5 22.8802 23.7464 22.6338 24.1161 22.6338H25.9643C26.3339 22.6338 26.5804 22.8802 26.5804 23.2499V24.482C26.5804 24.8516 26.3339 25.0981 25.9643 25.0981Z" fill="#BDBDBD"/>
<path d="M25.9643 28.7944H24.1161C23.7464 28.7944 23.5 28.5479 23.5 28.1783V26.9461C23.5 26.5765 23.7464 26.3301 24.1161 26.3301H25.9643C26.3339 26.3301 26.5804 26.5765 26.5804 26.9461V28.1783C26.5804 28.5479 26.3339 28.7944 25.9643 28.7944Z" fill="#BDBDBD"/>
</g>
<defs>
<filter id="filter0_d_0_1" x="-1009" y="-701" width="1928" height="6050" filterUnits="userSpaceOnUse" color-interpolation-filters="sRGB">
<feFlood flood-opacity="0" result="BackgroundImageFix"/>
<feColorMatrix in="SourceAlpha" type="matrix" values="0 0 0 0 0 0 0 0 0 0 0 0 0 0 0 0 0 0 127 0" result="hardAlpha"/>
<feOffset dy="4"/>
<feGaussianBlur stdDeviation="2"/>
<feComposite in2="hardAlpha" operator="out"/>
<feColorMatrix type="matrix" values="0 0 0 0 0 0 0 0 0 0 0 0 0 0 0 0 0 0 0.25 0"/>
<feBlend mode="normal" in2="BackgroundImageFix" result="effect1_dropShadow_0_1"/>
<feBlend mode="normal" in="SourceGraphic" in2="effect1_dropShadow_0_1" result="shape"/>
</filter>
<filter id="filter1_d_0_1" x="-878.5" y="-201.5" width="1271" height="312" filterUnits="userSpaceOnUse" color-interpolation-filters="sRGB">
<feFlood flood-opacity="0" result="BackgroundImageFix"/>
<feColorMatrix in="SourceAlpha" type="matrix" values="0 0 0 0 0 0 0 0 0 0 0 0 0 0 0 0 0 0 127 0" result="hardAlpha"/>
<feOffset dx="2" dy="2"/>
<feGaussianBlur stdDeviation="5"/>
<feComposite in2="hardAlpha" operator="out"/>
<feColorMatrix type="matrix" values="0 0 0 0 0 0 0 0 0 0 0 0 0 0 0 0 0 0 0.25 0"/>
<feBlend mode="normal" in2="BackgroundImageFix" result="effect1_dropShadow_0_1"/>
<feBlend mode="normal" in="SourceGraphic" in2="effect1_dropShadow_0_1" result="shape"/>
</filter>
<filter id="filter2_d_0_1" x="-29" y="-13" width="272" height="64" filterUnits="userSpaceOnUse" color-interpolation-filters="sRGB">
<feFlood flood-opacity="0" result="BackgroundImageFix"/>
<feColorMatrix in="SourceAlpha" type="matrix" values="0 0 0 0 0 0 0 0 0 0 0 0 0 0 0 0 0 0 127 0" result="hardAlpha"/>
<feOffset dx="1" dy="1"/>
<feGaussianBlur stdDeviation="2"/>
<feComposite in2="hardAlpha" operator="out"/>
<feColorMatrix type="matrix" values="0 0 0 0 0 0 0 0 0 0 0 0 0 0 0 0 0 0 0.25 0"/>
<feBlend mode="normal" in2="BackgroundImageFix" result="effect1_dropShadow_0_1"/>
<feBlend mode="normal" in="SourceGraphic" in2="effect1_dropShadow_0_1" result="shape"/>
</filter>
<clipPath id="clip0_0_1">
<rect width="1920" height="6042" fill="white" transform="translate(-1005 -701)"/>
</clipPath>
</defs>
</svg>
