<svg width="128" height="128" viewBox="0 0 128 128" fill="none" xmlns="http://www.w3.org/2000/svg">
<mask id="mask0_636_978" style="mask-type:alpha" maskUnits="userSpaceOnUse" x="0" y="0" width="128" height="128">
<path d="M128 64C128 99.3462 99.3462 128 64 128C28.6538 128 0 99.3462 0 64C0 28.6538 28.6538 0 64 0C99.3462 0 128 28.6538 128 64Z" fill="#D9D9D9"/>
</mask>
<g mask="url(#mask0_636_978)">
<path d="M127.851 64C127.851 99.3462 99.1976 128 63.8514 128C28.5052 128 -0.148621 99.3462 -0.148621 64C-0.148621 28.6538 28.5052 0 63.8514 0C99.1976 0 127.851 28.6538 127.851 64Z" fill="#5778EC"/>
<path d="M-3.91827 38.5924C-2.70461 30.7472 7.25065 28.0797 12.2243 34.267L23.4229 48.1982C25.9168 51.3006 30.1329 52.4303 33.8439 50.9905L50.5077 44.525C57.9087 41.6535 65.1965 48.9412 62.3249 56.3422L55.8594 73.006C54.4196 76.717 55.5493 80.9332 58.6517 83.4271L72.5829 94.6256C78.7703 99.5993 76.1028 109.555 68.2575 110.768L50.5935 113.501C46.6598 114.109 43.5733 117.196 42.9648 121.13L40.2321 138.794C39.0185 146.639 29.0632 149.306 24.0895 143.119L12.891 129.188C10.3971 126.085 6.18097 124.956 2.46996 126.395L-14.1938 132.861C-21.5948 135.732 -28.8826 128.445 -26.011 121.044L-19.5456 104.38C-18.1057 100.669 -19.2354 96.4528 -22.3379 93.9589L-36.269 82.7604C-42.4564 77.7867 -39.7889 67.8314 -31.9436 66.6178L-14.2796 63.8851C-10.3459 63.2766 -7.25945 60.1902 -6.6509 56.2564L-3.91827 38.5924Z" fill="#49C288"/>
<path d="M102.052 3.45501C104.083 -1.15167 110.62 -1.15167 112.651 3.45501L117.224 13.8272C118.243 16.1371 120.64 17.5212 123.15 17.2483L134.419 16.0229C139.424 15.4786 142.692 21.1392 139.718 25.2016L133.022 34.3484C131.531 36.3854 131.531 39.1536 133.022 41.1906L139.718 50.3374C142.692 54.3998 139.424 60.0604 134.419 59.5161L123.15 58.2907C120.64 58.0178 118.243 59.4019 117.224 61.7118L112.651 72.084C110.62 76.6907 104.083 76.6907 102.052 72.084L97.4786 61.7118C96.4601 59.4019 94.0628 58.0178 91.5531 58.2907L80.2838 59.5161C75.2787 60.0604 72.0106 54.3998 74.9845 50.3374L81.6804 41.1906C83.1716 39.1536 83.1716 36.3854 81.6804 34.3484L74.9845 25.2016C72.0106 21.1392 75.2787 15.4786 80.2838 16.0229L91.5531 17.2483C94.0628 17.5212 96.4601 16.1371 97.4786 13.8272L102.052 3.45501Z" fill="#49C288"/>
</g>
</svg>
