<svg width="47" height="53" viewBox="0 0 47 53" fill="none" xmlns="http://www.w3.org/2000/svg">
<path d="M36.2734 39.9768C33.8877 41.3998 31.1176 42.2544 28.1443 42.3473C18.8025 42.6393 10.9927 35.303 10.7007 25.9612C10.4972 19.4512 13.9981 13.6853 19.3007 10.6889M36.2734 39.9768L42.8787 39.7703L42.6722 33.1651C43.9435 30.6951 44.6233 27.877 44.5304 24.9037C44.2383 15.5619 36.4286 8.22559 27.0868 8.51761C24.2549 8.60613 21.6074 9.38547 19.3007 10.6889M36.2734 39.9768L40.5847 47.5538C37.6592 49.2428 34.4298 50.339 31.0807 50.7799C27.7316 51.2209 24.3284 50.9978 21.0655 50.1235C17.8026 49.2492 14.7438 47.7408 12.0639 45.6844C9.38393 43.628 7.13525 41.0639 5.44625 38.1384C3.75724 35.213 2.66099 31.9835 2.22007 28.6344C1.77915 25.2853 2.0022 21.8822 2.87649 18.6192C3.75079 15.3563 5.2592 12.2976 7.3156 9.61763C9.372 6.93768 11.9361 4.689 14.8616 3L19.3007 10.6889" stroke="black" stroke-width="3"/>
</svg>
