<svg width="116" height="18" viewBox="0 0 116 18" fill="none" xmlns="http://www.w3.org/2000/svg">
<path d="M11.936 0.511999V7.232H3.704V0.511999H0.704V17H3.704V9.968H11.936V17H14.936V0.511999H11.936ZM22.8404 14.696C21.0644 14.696 19.7684 13.496 19.4084 11.792H28.7684C28.7684 7.208 26.5364 4.304 22.6964 4.304C19.1684 4.304 16.3844 7.04 16.3844 10.76C16.3844 14.576 19.3124 17.288 22.8644 17.288C24.6644 17.288 26.8244 16.52 27.9044 15.368L26.0564 13.448C25.3604 14.168 23.9924 14.696 22.8404 14.696ZM22.8164 6.896C24.5684 6.896 25.6244 8 25.9604 9.56H19.4324C19.8644 7.928 21.1844 6.896 22.8164 6.896ZM30.1064 17H33.0344V0.223999H30.1064V17ZM35.0705 17H37.9985V0.223999H35.0705V17ZM46.0346 17.288C49.6346 17.288 52.6826 14.312 52.6826 10.784C52.6826 7.256 49.6346 4.304 46.0346 4.304C42.4346 4.304 39.3866 7.256 39.3866 10.784C39.3866 14.312 42.4346 17.288 46.0346 17.288ZM46.0346 14.792C43.9706 14.792 42.2426 12.968 42.2426 10.784C42.2426 8.624 43.9706 6.8 46.0346 6.8C48.0746 6.8 49.8026 8.624 49.8026 10.784C49.8026 12.968 48.0746 14.792 46.0346 14.792ZM56.9804 17H59.9564L64.1084 4.76L68.2364 17H71.2364L76.4444 0.511999H73.1564L69.6284 12.32L65.7404 0.511999H62.4764L58.5644 12.32L55.0364 0.511999H51.7484L56.9804 17ZM82.1893 17.288C85.7893 17.288 88.8373 14.312 88.8373 10.784C88.8373 7.256 85.7893 4.304 82.1893 4.304C78.5893 4.304 75.5413 7.256 75.5413 10.784C75.5413 14.312 78.5893 17.288 82.1893 17.288ZM82.1893 14.792C80.1253 14.792 78.3973 12.968 78.3973 10.784C78.3973 8.624 80.1253 6.8 82.1893 6.8C84.2293 6.8 85.9573 8.624 85.9573 10.784C85.9573 12.968 84.2293 14.792 82.1893 14.792ZM93.1767 6.992V4.592H90.2487V17H93.1767V10.736C93.1767 8.384 94.9527 6.8 97.6167 6.8V4.304C95.5767 4.304 93.9687 5.336 93.1767 6.992ZM98.5861 17H101.514V0.223999H98.5861V17ZM112.982 0.223999V6.512C111.998 5.12 110.51 4.304 108.686 4.304C105.398 4.304 102.998 6.992 102.998 10.784C102.998 14.6 105.398 17.288 108.686 17.288C110.51 17.288 111.998 16.472 112.982 15.08V17H115.91V0.223999H112.982ZM109.478 14.792C107.39 14.792 105.902 13.112 105.902 10.784C105.902 8.456 107.39 6.8 109.478 6.8C111.542 6.8 112.982 8.456 112.982 10.784C112.982 13.112 111.542 14.792 109.478 14.792Z" fill="black"/>
</svg>
