<svg width="256" height="256" viewBox="0 0 256 256" fill="none" xmlns="http://www.w3.org/2000/svg">
<path d="M139.851 12C139.851 18.6274 134.479 24 127.851 24C121.224 24 115.851 18.6274 115.851 12C115.851 5.37258 121.224 0 127.851 0C134.479 0 139.851 5.37258 139.851 12Z" fill="#E2D296"/>
<path d="M151.851 48C151.851 44.8483 151.231 41.7274 150.024 38.8156C148.818 35.9038 147.05 33.258 144.822 31.0294C142.593 28.8008 139.948 27.033 137.036 25.8269C134.124 24.6208 131.003 24 127.851 24C124.7 24 121.579 24.6208 118.667 25.8269C115.755 27.033 113.109 28.8008 110.881 31.0294C108.652 33.258 106.884 35.9038 105.678 38.8156C104.472 41.7274 103.851 44.8483 103.851 48H151.851Z" fill="#E2D296"/>
<path d="M115.851 244C115.851 237.373 121.224 232 127.851 232C134.479 232 139.851 237.373 139.851 244C139.851 250.627 134.479 256 127.851 256C121.224 256 115.851 250.627 115.851 244Z" fill="#978032"/>
<path d="M103.851 208C103.851 211.152 104.472 214.273 105.678 217.184C106.884 220.096 108.652 222.742 110.881 224.971C113.109 227.199 115.755 228.967 118.667 230.173C121.579 231.379 124.7 232 127.851 232C131.003 232 134.124 231.379 137.036 230.173C139.948 228.967 142.593 227.199 144.822 224.971C147.05 222.742 148.818 220.096 150.024 217.184C151.231 214.273 151.851 211.152 151.851 208L103.851 208Z" fill="#978032"/>
<path d="M234.31 80.3923C228.571 83.706 221.232 81.7395 217.918 76C214.604 70.2605 216.571 62.9214 222.31 59.6077C228.05 56.294 235.389 58.2605 238.703 64C242.016 69.7395 240.05 77.0786 234.31 80.3923Z" fill="#C9B87D"/>
<path d="M209.133 108.785C211.863 107.209 214.255 105.111 216.174 102.61C218.093 100.11 219.5 97.256 220.316 94.2117C221.131 91.1673 221.339 87.9921 220.928 84.8674C220.517 81.7426 219.494 78.7295 217.918 76C216.342 73.2705 214.244 70.8782 211.744 68.9595C209.243 67.0409 206.389 65.6335 203.345 64.8178C200.301 64.0021 197.126 63.7939 194.001 64.2053C190.876 64.6167 187.863 65.6395 185.133 67.2154L209.133 108.785Z" fill="#C9B87D"/>
<path d="M21.3923 175.608C27.1318 172.294 34.4709 174.261 37.7846 180C41.0983 185.74 39.1318 193.079 33.3923 196.392C27.6528 199.706 20.3137 197.74 17 192C13.6863 186.261 15.6528 178.921 21.3923 175.608Z" fill="#796317"/>
<path d="M46.5692 147.215C43.8398 148.791 41.4474 150.889 39.5287 153.39C37.6101 155.89 36.2027 158.744 35.387 161.788C34.5713 164.833 34.3632 168.008 34.7746 171.133C35.1859 174.257 36.2088 177.271 37.7846 180C39.3605 182.73 41.4585 185.122 43.959 187.041C46.4594 188.959 49.3132 190.367 52.3576 191.182C55.4019 191.998 58.5771 192.206 61.7019 191.795C64.8266 191.383 67.8397 190.361 70.5692 188.785L46.5692 147.215Z" fill="#796317"/>
<path d="M222.31 196.392C216.571 193.079 214.604 185.74 217.918 180C221.232 174.26 228.571 172.294 234.31 175.608C240.05 178.921 242.016 186.26 238.703 192C235.389 197.74 228.05 199.706 222.31 196.392Z" fill="#C6AA4B"/>
<path d="M185.133 188.785C187.863 190.36 190.876 191.383 194.001 191.795C197.126 192.206 200.301 191.998 203.345 191.182C206.389 190.366 209.243 188.959 211.744 187.04C214.244 185.122 216.342 182.729 217.918 180C219.494 177.271 220.517 174.257 220.928 171.133C221.339 168.008 221.131 164.833 220.316 161.788C219.5 158.744 218.093 155.89 216.174 153.39C214.255 150.889 211.863 148.791 209.133 147.215L185.133 188.785Z" fill="#C6AA4B"/>
<path d="M33.3923 59.6077C39.1318 62.9214 41.0983 70.2605 37.7846 76C34.4709 81.7395 27.1318 83.706 21.3923 80.3923C15.6528 77.0786 13.6863 69.7395 17 64C20.3137 58.2605 27.6528 56.294 33.3923 59.6077Z" fill="#504215"/>
<path d="M70.5692 67.2154C67.8397 65.6395 64.8266 64.6167 61.7018 64.2053C58.5771 63.7939 55.4019 64.0021 52.3576 64.8178C49.3132 65.6335 46.4594 67.0409 43.9589 68.9595C41.4585 70.8782 39.3605 73.2705 37.7846 76C36.2087 78.7295 35.1859 81.7426 34.7745 84.8674C34.3632 87.9921 34.5713 91.1673 35.387 94.2117C36.2027 97.256 37.6101 100.11 39.5287 102.61C41.4474 105.111 43.8397 107.209 46.5692 108.785L70.5692 67.2154Z" fill="#504215"/>
</svg>
