<svg width="140" height="150" viewBox="0 0 140 150" fill="none" xmlns="http://www.w3.org/2000/svg">
<rect width="140" height="150" rx="20" fill="#F8F8F8"/>
<path d="M58.4238 99.4102H45.2207V101.637H55.6113C55.582 103.697 55.5332 106.178 54.8496 109.469L57.7012 109.762C58.4238 105.885 58.4238 103.346 58.4238 101.09V99.4102ZM43.541 113.785H59.8887V111.52H52.0176V105.426H49.2246V111.52H43.541V113.785ZM77.3301 100.035H75.1035V97.9453H72.291V108.375H75.1035V106.246H77.3301V103.941H75.1035V102.301H77.3301V100.035ZM60.8848 103.277C60.8652 105.816 63.0332 107.662 65.8652 107.652C68.6484 107.662 70.8066 105.816 70.8066 103.277C70.8066 100.719 68.6484 98.9023 65.8652 98.9023C63.0332 98.9023 60.8652 100.719 60.8848 103.277ZM62.9941 112.301C62.9844 114.537 65.416 115.895 69.1855 115.875C72.8867 115.895 75.2793 114.537 75.2793 112.301C75.2793 110.035 72.8867 108.678 69.1855 108.688C65.416 108.678 62.9844 110.035 62.9941 112.301ZM63.6387 103.277C63.6289 101.998 64.5859 101.246 65.8652 101.246C67.0957 101.246 68.0625 101.998 68.0723 103.277C68.0625 104.576 67.0957 105.289 65.8652 105.289C64.5859 105.289 63.6289 104.576 63.6387 103.277ZM65.8066 112.301C65.7969 111.324 66.959 110.895 69.1855 110.895C71.3926 110.895 72.4961 111.324 72.5059 112.301C72.4961 113.268 71.3926 113.658 69.1855 113.648C66.959 113.658 65.7969 113.268 65.8066 112.301ZM93.1699 97.9453H90.3379V115.914H93.1699V97.9453ZM78.5801 105.582C78.5801 109.566 80.6211 112.047 83.3848 112.047C86.1094 112.047 88.1406 109.566 88.1504 105.582C88.1406 101.656 86.1094 99.166 83.3848 99.1758C80.6211 99.166 78.5801 101.656 78.5801 105.582ZM81.3145 105.582C81.2949 103.023 82.125 101.705 83.3848 101.715C84.6055 101.705 85.4258 103.023 85.4355 105.582C85.4258 108.189 84.6055 109.488 83.3848 109.488C82.125 109.488 81.2949 108.189 81.3145 105.582Z" fill="#FFF9F4"/>
<g clip-path="url(#clip0_1251_5214)">
<rect width="64" height="64" transform="translate(37 28)" fill="#F8F8F8"/>
<path d="M92.235 57.51C96.99 45.095 94.06 35.595 92.38 32.87C91.715 31.79 90.435 31.49 89.255 31.86C86.145 32.84 77.75 39.7 74.04 49.3M45.765 57.51C41.01 45.095 43.94 35.595 45.62 32.87C46.285 31.79 47.565 31.49 48.745 31.86C51.855 32.84 60.25 39.7 63.96 49.3" fill="#FFC022"/>
<path d="M94.055 63.38C93.155 50.39 84.22 41.15 69 41.15C53.78 41.15 44.845 50.39 43.945 63.38C43.42 70.95 46.47 77.385 52.49 81.485C52.49 81.485 58.595 86.425 69 86.555C79.405 86.425 85.51 81.485 85.51 81.485C91.525 77.385 94.58 70.95 94.055 63.38V63.38Z" fill="#FFC022"/>
<path opacity="0.47" d="M64.06 50.51C64.625 50.99 65.77 50.92 66.435 50.15C67.24 49.215 68.08 46.065 67.555 41.195C65.22 41.28 63.01 41.615 60.95 42.18C62.615 44.91 63.015 49.62 64.06 50.51ZM73.94 50.51C73.375 50.99 72.23 50.92 71.565 50.15C70.76 49.215 69.92 46.065 70.445 41.195C72.78 41.28 74.99 41.615 77.05 42.18C75.385 44.91 74.985 49.62 73.94 50.51Z" fill="#FF7043"/>
<path d="M54.215 60.595C54.175 58.36 55.745 56.525 57.715 56.49C59.685 56.455 60.92 58.285 60.96 60.52C61 62.755 59.43 64.59 57.46 64.625C55.49 64.66 54.255 62.83 54.215 60.595ZM83.785 60.595C83.825 58.36 82.255 56.525 80.285 56.49C78.315 56.455 77.08 58.285 77.04 60.52C77 62.755 78.57 64.59 80.54 64.625C82.51 64.66 83.745 62.83 83.785 60.595Z" fill="black"/>
<path d="M38.2 63.21C38.2 63.21 42.855 62.365 48.215 65.185M38.155 69.575C38.155 69.575 42.26 67.715 47.775 68.695M39.75 75.185C39.75 75.185 43.66 72.595 48.625 72.155M99.585 62.17C99.585 62.17 94.905 61.48 89.645 64.48M99.845 68.53C99.845 68.53 95.68 66.81 90.2 67.975M98.44 74.195C98.44 74.195 94.445 71.735 89.47 71.47" stroke="#969696" stroke-width="3" stroke-miterlimit="10" stroke-linecap="round"/>
<path d="M64.98 66.595C64.955 65.165 67.01 64.475 68.955 64.445C70.9 64.41 72.99 65.045 73.015 66.475C73.04 67.905 70.585 69.795 69.04 69.795C67.495 69.795 65.005 68.025 64.98 66.595Z" fill="black"/>
<path d="M72.945 72.175C72.995 72.185 73.045 72.195 73.1 72.205C73.75 72.325 74.35 72.425 74.95 72.755C75.03 72.8 75.12 72.855 75.15 72.95C75.185 73.045 75.15 73.155 75.115 73.25C74.9 73.765 74.5 74.15 74.1 74.5C72.52 75.86 70.6 76.89 68.61 76.77C66.89 76.67 65.23 75.665 64.21 74.115C64.16 74.04 64.115 73.96 64.11 73.87C64.105 73.775 64.15 73.685 64.2 73.61C64.495 73.165 64.99 72.965 65.435 72.73C66.21 72.33 66.92 71.775 67.525 71.1C67.805 70.79 68.07 70.45 68.435 70.28C69.08 69.98 69.34 70.515 69.785 70.865C70.285 71.255 70.92 71.575 71.51 71.745C71.99 71.88 72.47 72.07 72.945 72.175V72.175Z" fill="#EF7F9D"/>
<path d="M57.385 70.435C57.385 70.435 59.405 72.895 63.35 72.895C68.1 72.895 69.315 67.655 69.315 67.655" stroke="black" stroke-width="1.5" stroke-miterlimit="10" stroke-linecap="round"/>
<path d="M80.615 70.435C80.615 70.435 78.595 72.895 74.65 72.895C69.9 72.895 68.685 67.655 68.685 67.655" stroke="black" stroke-width="1.5" stroke-miterlimit="10" stroke-linecap="round"/>
<path d="M83.08 46.115C82.31 45.47 82.33 44.43 82.78 43.535C83.86 41.38 86.445 39.145 87.36 38.42C88.86 37.23 90.02 36.83 90.465 38.745C91.29 42.285 91.225 47.09 90.34 49.74C90.03 50.675 89.07 51.17 88.33 50.525L83.08 46.115V46.115ZM54.92 46.115C55.69 45.47 55.67 44.43 55.22 43.535C54.14 41.38 51.555 39.145 50.64 38.42C49.14 37.23 47.98 36.83 47.535 38.745C46.71 42.285 46.775 47.09 47.66 49.74C47.97 50.675 48.93 51.17 49.67 50.525L54.92 46.115V46.115Z" fill="#FFD1D1"/>
</g>
<path d="M75.1632 73.4736C75.1632 73.4736 72.9532 78.1886 68.7132 78.1886C64.6482 78.1886 62.2632 73.4736 62.2632 73.4736" fill="#FFF9F4"/>
<path d="M75.1632 73.4736C75.1632 73.4736 72.9532 78.1886 68.7132 78.1886C64.6482 78.1886 62.2632 73.4736 62.2632 73.4736" stroke="black" stroke-width="1.5" stroke-miterlimit="10"/>
<path d="M59.4238 99.4102H46.2207V101.637H56.6113C56.582 103.697 56.5332 106.178 55.8496 109.469L58.7012 109.762C59.4238 105.885 59.4238 103.346 59.4238 101.09V99.4102ZM44.541 113.785H60.8887V111.52H53.0176V105.426H50.2246V111.52H44.541V113.785ZM78.3301 100.035H76.1035V97.9453H73.291V108.375H76.1035V106.246H78.3301V103.941H76.1035V102.301H78.3301V100.035ZM61.8848 103.277C61.8652 105.816 64.0332 107.662 66.8652 107.652C69.6484 107.662 71.8066 105.816 71.8066 103.277C71.8066 100.719 69.6484 98.9023 66.8652 98.9023C64.0332 98.9023 61.8652 100.719 61.8848 103.277ZM63.9941 112.301C63.9844 114.537 66.416 115.895 70.1855 115.875C73.8867 115.895 76.2793 114.537 76.2793 112.301C76.2793 110.035 73.8867 108.678 70.1855 108.688C66.416 108.678 63.9844 110.035 63.9941 112.301ZM64.6387 103.277C64.6289 101.998 65.5859 101.246 66.8652 101.246C68.0957 101.246 69.0625 101.998 69.0723 103.277C69.0625 104.576 68.0957 105.289 66.8652 105.289C65.5859 105.289 64.6289 104.576 64.6387 103.277ZM66.8066 112.301C66.7969 111.324 67.959 110.895 70.1855 110.895C72.3926 110.895 73.4961 111.324 73.5059 112.301C73.4961 113.268 72.3926 113.658 70.1855 113.648C67.959 113.658 66.7969 113.268 66.8066 112.301ZM94.1699 97.9453H91.3379V115.914H94.1699V97.9453ZM79.5801 105.582C79.5801 109.566 81.6211 112.047 84.3848 112.047C87.1094 112.047 89.1406 109.566 89.1504 105.582C89.1406 101.656 87.1094 99.166 84.3848 99.1758C81.6211 99.166 79.5801 101.656 79.5801 105.582ZM82.3145 105.582C82.2949 103.023 83.125 101.705 84.3848 101.715C85.6055 101.705 86.4258 103.023 86.4355 105.582C86.4258 108.189 85.6055 109.488 84.3848 109.488C83.125 109.488 82.2949 108.189 82.3145 105.582Z" fill="#EE9325" fill-opacity="0.87"/>
<defs>
<clipPath id="clip0_1251_5214">
<rect width="64" height="64" fill="white" transform="translate(37 28)"/>
</clipPath>
</defs>
</svg>
