<svg width="64" height="64" viewBox="0 0 64 64" fill="none" xmlns="http://www.w3.org/2000/svg">
<g clip-path="url(#clip0_469_5478)">
<path d="M55.2351 29.51C59.9901 17.095 57.0601 7.59499 55.3801 4.86999C54.7151 3.78999 53.4351 3.48999 52.2551 3.85999C49.1451 4.83999 40.7501 11.7 37.0401 21.3M8.76507 29.51C4.01007 17.095 6.94007 7.59499 8.62007 4.86999C9.28507 3.78999 10.5651 3.48999 11.7451 3.85999C14.8551 4.83999 23.2501 11.7 26.9601 21.3" fill="#FFC022"/>
<path d="M57.0548 35.38C56.1548 22.39 47.2198 13.15 31.9998 13.15C16.7798 13.15 7.84478 22.39 6.94478 35.38C6.41978 42.95 9.46978 49.385 15.4898 53.485C15.4898 53.485 21.5948 58.425 31.9998 58.555C42.4048 58.425 48.5098 53.485 48.5098 53.485C54.5248 49.385 57.5798 42.95 57.0548 35.38Z" fill="#FFC022"/>
<path opacity="0.47" d="M27.0602 22.51C27.6252 22.99 28.7702 22.92 29.4352 22.15C30.2402 21.215 31.0802 18.065 30.5552 13.195C28.2202 13.28 26.0102 13.615 23.9502 14.18C25.6152 16.91 26.0152 21.62 27.0602 22.51ZM36.9402 22.51C36.3752 22.99 35.2302 22.92 34.5652 22.15C33.7602 21.215 32.9202 18.065 33.4452 13.195C35.7802 13.28 37.9902 13.615 40.0502 14.18C38.3852 16.91 37.9852 21.62 36.9402 22.51Z" fill="#FF7043"/>
<path d="M17.2151 32.595C17.1751 30.36 18.7451 28.525 20.7151 28.49C22.6851 28.455 23.9201 30.285 23.9601 32.52C24.0001 34.755 22.4301 36.59 20.4601 36.625C18.4901 36.66 17.2551 34.83 17.2151 32.595ZM46.7851 32.595C46.8251 30.36 45.2551 28.525 43.2851 28.49C41.3151 28.455 40.0801 30.285 40.0401 32.52C40.0001 34.755 41.5701 36.59 43.5401 36.625C45.5101 36.66 46.7451 34.83 46.7851 32.595Z" fill="black"/>
<path d="M1.19979 35.21C1.19979 35.21 5.85479 34.365 11.2148 37.185M1.15479 41.575C1.15479 41.575 5.25979 39.715 10.7748 40.695M2.74979 47.185C2.74979 47.185 6.65979 44.595 11.6248 44.155M62.5848 34.17C62.5848 34.17 57.9048 33.48 52.6448 36.48M62.8448 40.53C62.8448 40.53 58.6798 38.81 53.1998 39.975M61.4398 46.195C61.4398 46.195 57.4448 43.735 52.4698 43.47" stroke="#9E9E9E" stroke-width="3" stroke-miterlimit="10" stroke-linecap="round"/>
<path d="M27.9802 38.595C27.9552 37.165 30.0102 36.475 31.9552 36.445C33.9002 36.41 35.9902 37.045 36.0152 38.475C36.0402 39.905 33.5852 41.795 32.0402 41.795C30.4952 41.795 28.0052 40.025 27.9802 38.595Z" fill="black"/>
<path d="M35.9448 44.175C35.9948 44.185 36.0448 44.195 36.0998 44.205C36.7498 44.325 37.3498 44.425 37.9498 44.755C38.0298 44.8 38.1198 44.855 38.1498 44.95C38.1848 45.045 38.1498 45.155 38.1148 45.25C37.8998 45.765 37.4998 46.15 37.0998 46.5C35.5198 47.86 33.5998 48.89 31.6098 48.77C29.8898 48.67 28.2298 47.665 27.2098 46.115C27.1598 46.04 27.1148 45.96 27.1098 45.87C27.1048 45.775 27.1498 45.685 27.1998 45.61C27.4948 45.165 27.9898 44.965 28.4348 44.73C29.2098 44.33 29.9198 43.775 30.5248 43.1C30.8048 42.79 31.0698 42.45 31.4348 42.28C32.0798 41.98 32.3398 42.515 32.7848 42.865C33.2848 43.255 33.9198 43.575 34.5098 43.745C34.9898 43.88 35.4698 44.07 35.9448 44.175Z" fill="#EF7F9D"/>
<path d="M20.3848 42.435C20.3848 42.435 22.4048 44.895 26.3498 44.895C31.0998 44.895 32.3148 39.655 32.3148 39.655" stroke="black" stroke-width="1.5" stroke-miterlimit="10" stroke-linecap="round"/>
<path d="M43.6146 42.435C43.6146 42.435 41.5946 44.895 37.6496 44.895C32.8996 44.895 31.6846 39.655 31.6846 39.655" stroke="black" stroke-width="1.5" stroke-miterlimit="10" stroke-linecap="round"/>
<path d="M46.0798 18.115C45.3098 17.47 45.3298 16.43 45.7798 15.535C46.8598 13.38 49.4448 11.145 50.3598 10.42C51.8598 9.23001 53.0198 8.83001 53.4648 10.745C54.2898 14.285 54.2248 19.09 53.3398 21.74C53.0298 22.675 52.0698 23.17 51.3298 22.525L46.0798 18.115ZM17.9198 18.115C18.6898 17.47 18.6698 16.43 18.2198 15.535C17.1398 13.38 14.5548 11.145 13.6398 10.42C12.1398 9.23001 10.9798 8.83001 10.5348 10.745C9.70983 14.285 9.77483 19.09 10.6598 21.74C10.9698 22.675 11.9298 23.17 12.6698 22.525L17.9198 18.115Z" fill="#FFD1D1"/>
</g>
<path d="M38.1632 45.4736C38.1632 45.4736 35.9532 50.1886 31.7132 50.1886C27.6482 50.1886 25.2632 45.4736 25.2632 45.4736" stroke="black" stroke-width="1.5" stroke-miterlimit="10"/>
<defs>
<clipPath id="clip0_469_5478">
<rect width="64" height="64" fill="white"/>
</clipPath>
</defs>
</svg>
