<svg width="348" height="286" viewBox="0 0 348 286" fill="none" xmlns="http://www.w3.org/2000/svg">
<path d="M272.7 0H30.3C22.2639 0 14.557 1.5066 8.87466 4.18837C3.19231 6.87014 0 10.5074 0 14.3V143L60.6 114.4H272.7C280.736 114.4 288.443 112.893 294.125 110.212C299.808 107.53 303 103.893 303 100.1V14.3C303 6.3635 289.365 0 272.7 0Z" fill="#5E6088"/>
<path d="M75.3 143H317.7C325.736 143 333.443 144.507 339.125 147.188C344.808 149.87 348 153.507 348 157.3V286L287.4 257.4H75.3C67.2639 257.4 59.557 255.893 53.8747 253.212C48.1923 250.53 45 246.893 45 243.1V157.3C45 149.363 58.635 143 75.3 143Z" fill="#FECC42"/>
<path d="M85.0312 60.8281H68.25V57.6875H80.7188V53.7031H56.4844V50.7031H79.3594V46.8594H56.4844V43.9531H80.3906V39.9219H51.2812V57.6875H63.0469V60.8281H46.3125V64.9531H85.0312V60.8281ZM50.9062 74.1875C50.9062 78.7344 56.2266 81.125 65.6719 81.125C74.9766 81.125 80.3203 78.7344 80.3438 74.1875C80.3203 69.7578 74.9766 67.2734 65.6719 67.2969C56.2266 67.2734 50.9062 69.7578 50.9062 74.1875ZM56.1094 74.1875C56.1094 72.1719 59.2969 71.1875 65.6719 71.1875C71.9297 71.1875 75.0938 72.1719 75.1406 74.1875C75.0938 76.25 71.9297 77.2344 65.6719 77.2344C59.2969 77.2344 56.1094 76.25 56.1094 74.1875ZM123.422 38.8438H118.172V63.5469H109.875V67.2031H118.172V70.9062H123.422V38.8438ZM87.7031 57.875L88.3594 62.0469C91.6875 62.0469 95.4609 62.0234 99.4219 61.8594V69.7344H104.625V61.5781C108.211 61.3203 111.82 60.9453 115.312 60.3594L115.031 56.6094C106.031 57.7578 95.5078 57.8281 87.7031 57.875ZM90.9375 47.8906C90.9375 52.4375 95.25 55.3203 101.531 55.3438C107.695 55.3203 112.031 52.4375 112.078 47.8906C112.031 43.4141 107.695 40.3672 101.531 40.3906C95.25 40.3672 90.9375 43.4141 90.9375 47.8906ZM93.3281 80.3281H124.406V76.1094H98.5312V67.8125H93.3281V80.3281ZM95.8594 47.8906C95.8594 45.5938 98.1328 44.2109 101.531 44.2344C104.766 44.2109 107.086 45.5938 107.109 47.8906C107.086 50.1875 104.766 51.5234 101.531 51.5469C98.1328 51.5234 95.8594 50.1875 95.8594 47.8906ZM164.578 38.7969H159.375V81.1719H164.578V38.7969ZM129.797 69.125L132.609 73.1562C137.555 71 141.211 66.4766 143.109 61.0625C145.055 66.1719 148.711 70.3906 153.562 72.4531L156.422 68.4688C149.578 65.6094 145.617 58.6953 145.641 52.25V50.0469H154.734V45.875H145.594V39.6875H140.438V45.875H131.109V50.0469H140.438V52.25C140.438 59.0234 136.547 66.1484 129.797 69.125ZM209.578 71.9375H199.781V64.9531H205.969V60.7344H180.656V55.2969H204.984V41.7031H175.359V45.9219H199.828V51.125H175.453V64.9531H181.125V71.9375H170.859V76.25H209.578V71.9375ZM186.188 71.9375V64.9531H194.672V71.9375H186.188ZM247.594 38.7969H242.344V81.2188H247.594V38.7969ZM214.594 71.2344H235.219V42.2656H230.062V52.8594H219.797V42.2656H214.594V71.2344ZM219.797 66.9688V56.9375H230.062V66.9688H219.797ZM261 66.5938V67.0156H266.484V66.5938C266.531 63.0781 267.656 61.4609 270.375 59.7969C273.422 57.9922 275.32 55.5078 275.344 51.6875C275.32 46.1094 270.984 42.5938 264.656 42.5938C258.867 42.5938 254.18 45.8047 254.016 52.1094H259.875C260.039 48.9688 262.289 47.4688 264.609 47.4688C267.164 47.4688 269.227 49.1562 269.203 51.7812C269.227 54.125 267.68 55.6953 265.688 56.9844C262.734 58.7891 261.047 60.6172 261 66.5938ZM260.25 73.7188C260.227 75.7344 261.891 77.375 263.906 77.375C265.852 77.375 267.516 75.7344 267.516 73.7188C267.516 71.75 265.852 70.1328 263.906 70.1094C261.891 70.1328 260.227 71.75 260.25 73.7188Z" fill="white"/>
<path d="M145.391 178.297V177.125H140.047V178.297C140.023 182.82 134.234 187.062 125.375 188L127.156 191.938C134.281 191.07 139.953 188.188 142.695 184.062C145.414 188.188 151.109 191.07 158.234 191.938L160.062 188C151.156 187.062 145.391 182.82 145.391 178.297ZM123.406 198.125H162.031V193.906H123.406V198.125ZM127.953 205.016H152.094V207.922H128V218.797H158.375V214.812H133.109V211.625H157.203V201.125H127.953V205.016ZM201.266 176.797H196.25V193.203H191.703V177.922H186.828V217.203H191.703V197.422H196.25V219.172H201.266V176.797ZM164.562 206.703L167.562 210.312C179.609 203.445 183.219 193.602 183.219 182.141H166.531V186.312H178.156C177.406 194.797 173.586 201.5 164.562 206.703ZM240.219 178.438H210.875V182.562H235.016C234.992 184.789 234.875 187.344 234.312 190.672L239.469 191.141C240.219 186.969 240.219 183.641 240.219 181.062V178.438ZM206.469 197.141H244.906V193.062H226.531V186.453H221.375V193.062H206.469V197.141ZM210.828 204.359H235.109V207.547H210.875V218.75H241.391V214.672H216.078V211.109H240.312V200.188H210.828V204.359ZM255.031 204.594V205.016H260.516V204.594C260.562 201.078 261.688 199.461 264.406 197.797C267.453 195.992 269.352 193.508 269.375 189.688C269.352 184.109 265.016 180.594 258.688 180.594C252.898 180.594 248.211 183.805 248.047 190.109H253.906C254.07 186.969 256.32 185.469 258.641 185.469C261.195 185.469 263.258 187.156 263.234 189.781C263.258 192.125 261.711 193.695 259.719 194.984C256.766 196.789 255.078 198.617 255.031 204.594ZM254.281 211.719C254.258 213.734 255.922 215.375 257.938 215.375C259.883 215.375 261.547 213.734 261.547 211.719C261.547 209.75 259.883 208.133 257.938 208.109C255.922 208.133 254.258 209.75 254.281 211.719Z" fill="white"/>
</svg>
