<svg width="140" height="150" viewBox="0 0 140 150" fill="none" xmlns="http://www.w3.org/2000/svg">
<rect width="140" height="150" rx="20" fill="#F8F8F8"/>
<path d="M58.8184 97.9453H56.0059V108.238H58.8184V104.312H61.1426V102.027H58.8184V97.9453ZM44.3848 106.48L45.498 108.746C50.8691 107.281 53.7988 103.932 53.7988 99.0781H45.2441V101.324H50.7031C50.3027 103.6 48.1934 105.494 44.3848 106.48ZM46.7676 112.164C46.7578 114.469 49.248 115.904 52.9004 115.895C56.5723 115.904 59.0039 114.469 59.0137 112.164C59.0039 109.908 56.5723 108.453 52.9004 108.453C49.248 108.453 46.7578 109.908 46.7676 112.164ZM49.5605 112.164C49.5508 111.158 50.7812 110.631 52.9004 110.621C55.0098 110.631 56.2305 111.158 56.2402 112.164C56.2305 113.189 55.0098 113.727 52.9004 113.727C50.7812 113.727 49.5508 113.189 49.5605 112.164ZM66.6699 99.1758C63.8867 99.166 61.8457 101.656 61.8652 105.582C61.8457 109.566 63.8867 112.047 66.6699 112.047C69.4141 112.047 71.4355 109.566 71.4551 105.582C71.4355 101.656 69.4141 99.166 66.6699 99.1758ZM64.5996 105.582C64.5801 103.023 65.4199 101.705 66.6699 101.715C67.9297 101.705 68.75 103.023 68.7598 105.582C68.75 108.189 67.9297 109.488 66.6699 109.488C65.4199 109.488 64.5801 108.189 64.5996 105.582ZM73.2324 115.875H76.0449V106.91H78.584V104.586H76.0449V97.9453H73.2324V115.875ZM86.2207 102.633V101.93H89.8145V99.6445H79.6777V101.93H83.3496V102.633C83.3496 105.65 82.041 108.941 78.9355 110.309L80.5371 112.516C82.6367 111.578 84.043 109.723 84.834 107.467C85.625 109.518 87.002 111.197 89.0918 112.066L90.5957 109.859C87.4805 108.59 86.2207 105.484 86.2207 102.633ZM91.3379 115.875H94.1699V97.9453H91.3379V115.875Z" fill="#EE9325" fill-opacity="0.87"/>
<path d="M69.8688 35.9211C53.9602 35.5109 48.8086 47.8265 48.4149 52.4476C48.1086 56.0406 46.5664 69.182 54.0586 78.0086C57.925 82.564 64.1211 84.8336 70.6891 84.6805C77.3117 84.5273 83.2945 83.2094 87.3195 77.9047C94.0953 68.9742 93.3734 55.6305 92.4547 51.3156C91.5906 47.3015 88.2383 36.3914 69.8688 35.9211V35.9211Z" fill="#FFEAC8"/>
<path d="M87.9484 60.2352C88.5117 64.5062 86.6578 68.5805 81.7742 68.8703C77.3063 69.1383 74.55 66.2891 74.3313 62.0945C74.107 57.7961 76.4586 53.7984 80.1938 53.3883C84.1367 52.9562 87.3906 55.9641 87.9484 60.2352V60.2352ZM45.3359 39.6125C45.3359 39.6125 39.9602 41.718 38.6641 44.8461C36.9195 49.057 37.7234 57.4133 38.6641 60.6562C39.5883 63.8391 42.0492 67.1258 45.85 67.0219C49.6508 66.918 52.9867 63.068 54.1625 58.0422C55.3438 53.0109 55.6008 44.3922 55.9563 42.85C56.3117 41.3078 56.9297 40.0773 56.9297 40.0773C56.9297 40.0773 52.2102 35.5055 45.3359 39.6125V39.6125ZM90.3492 38.9453C90.3492 38.9453 97.6391 39.2023 99.3836 39.9734C101.128 40.7445 102.72 44.2336 102.566 48.9039C102.413 53.5742 102.107 61.1266 99.7445 63.7352C97.7922 65.8898 93.8438 66.043 91.6344 63.3742C89.425 60.7055 88.0414 56.1883 87.5274 53.2625C87.0133 50.3367 86.1438 46.5414 85.575 44.8461C85.0117 43.1508 83.6227 39.7656 82.9063 38.9945C82.1844 38.2289 83.6227 37.507 90.3492 38.9453V38.9453Z" fill="#D27856"/>
<path d="M51.3899 37.2008C47.436 36.9492 40.9172 40.0773 39.5828 43.3094C38.2485 46.5414 39.0305 57.0304 40.1516 60.0929C41.3328 63.325 43.7938 67.3828 48.0539 63.8937C52.3141 60.4047 53.4407 51.6273 53.8563 48.8055C54.2664 45.9836 54.8297 42.5437 55.4477 41.8273C56.0657 41.1109 56.9352 40.0828 56.9352 40.0828C56.9352 40.0828 56.268 37.507 51.3899 37.2008ZM91.2188 36.5336C94.9321 36.7906 98.968 38.1742 100.456 41.4117C101.943 44.6437 101.38 52.2945 100.816 55.9367C100.253 59.5789 98.9188 63.3797 95.5828 62.9695C92.2469 62.5594 90.5516 58.0422 89.5289 53.782C88.5008 49.5219 87.4235 45.2617 86.0891 42.1828C85.2852 40.3234 82.4961 38.9508 82.4961 38.9508C82.4961 38.9508 83.7266 36.0195 91.2188 36.5336Z" fill="#865B51"/>
<path d="M62.6172 62.018C62.3984 63.8883 61.4359 65.3977 59.3469 65.1789C57.8648 65.0203 56.8695 63.2539 57.0883 61.3781C57.307 59.5078 57.9578 58.1625 59.7078 58.1953C62.4258 58.2445 62.8359 60.1422 62.6172 62.018V62.018ZM84.0766 61.493C84.1641 63.3742 83.4203 64.982 81.2492 65.1406C79.3625 65.2774 78.3945 63.6422 78.3125 61.7609C78.225 59.8797 79.1602 58.3703 80.9594 58.1461C83.2945 57.8453 83.9891 59.6117 84.0766 61.493ZM76.0813 70.9758C76.1688 72.857 74.9 74.618 70.9461 74.5688C67.0961 74.5195 65.6961 72.9609 65.6086 71.0797C65.5211 69.1984 67.7086 67.5086 70.8422 67.4375C75.157 67.3281 75.9938 69.0891 76.0813 70.9758Z" fill="#2F2F2F"/>
<path d="M67.3531 78.5719C67.3531 78.5719 67.818 83.0399 68.2774 84.3742C69.2508 87.1961 73.3524 86.7258 74.0797 84.068C74.6977 81.8094 74.2875 77.9102 74.2875 77.9102L70.6453 77.3961L67.3531 78.5719Z" fill="#E94B8C"/>
<path d="M71.0719 80.0594C70.432 80.0867 70.4539 80.6774 70.4539 82.0336C70.4539 83.3953 70.5304 84.2156 71.1484 84.1883C71.7664 84.1609 71.6898 83.1109 71.6898 82.1375C71.6898 81.1641 71.739 80.032 71.0719 80.0594Z" fill="#EF87B2"/>
<path d="M62.4258 74.3336C61.6875 75.4219 63.1203 76.3844 64.3015 77.1828C65.4828 77.9758 66.9156 79.1844 68.6109 79.157C70.5086 79.1297 71.0226 77.85 71.0226 77.85C71.0226 77.85 71.6406 79.3648 74.3312 79.0805C75.7695 78.9273 77.5414 77.314 78.0773 76.9531C79.1054 76.2586 80.3359 75.389 79.7945 74.6672C79.1765 73.8414 77.8695 74.9515 76.5351 75.6406C75.2008 76.3351 74.7414 76.6687 73.7406 76.6687C72.7398 76.6687 72.0453 76.2586 71.9961 74.5906C71.9523 73.2289 71.9687 72.9719 71.9687 72.9719H69.6828C69.6828 72.9719 69.7594 74.4101 69.7594 74.8203C69.7594 75.8976 69.1961 76.3625 68.1187 76.4117C67.0414 76.4609 65.8875 75.564 65.3187 75.2305C64.7609 74.9023 63.0164 73.464 62.4258 74.3336V74.3336Z" fill="#2F2F30"/>
</svg>
