<svg width="70" height="70" viewBox="0 0 70 70" fill="none" xmlns="http://www.w3.org/2000/svg">
<path d="M34.8689 10.9211C18.9603 10.5109 13.8088 22.8265 13.415 27.4476C13.1088 31.0406 11.5666 44.182 19.0588 53.0086C22.9252 57.564 29.1213 59.8336 35.6893 59.6805C42.3119 59.5273 48.2947 58.2094 52.3197 52.9047C59.0955 43.9742 58.3736 30.6305 57.4549 26.3156C56.5908 22.3015 53.2385 11.3914 34.8689 10.9211Z" fill="#FFEAC8"/>
<path d="M52.9482 35.2352C53.5115 39.5062 51.6576 43.5805 46.774 43.8703C42.306 44.1383 39.5498 41.2891 39.331 37.0945C39.1068 32.7961 41.4584 28.7984 45.1935 28.3883C49.1365 27.9562 52.3904 30.9641 52.9482 35.2352ZM10.3357 14.6125C10.3357 14.6125 4.95992 16.718 3.66383 19.8461C1.9193 24.057 2.72321 32.4133 3.66383 35.6562C4.58805 38.8391 7.04899 42.1258 10.8498 42.0219C14.6505 41.918 17.9865 38.068 19.1623 33.0422C20.3435 28.0109 20.6005 19.3922 20.956 17.85C21.3115 16.3078 21.9295 15.0773 21.9295 15.0773C21.9295 15.0773 17.2099 10.5055 10.3357 14.6125ZM55.349 13.9453C55.349 13.9453 62.6388 14.2023 64.3834 14.9734C66.1279 15.7445 67.7193 19.2336 67.5662 23.9039C67.413 28.5742 67.1068 36.1266 64.7443 38.7352C62.792 40.8898 58.8435 41.043 56.6341 38.3742C54.4248 35.7055 53.0412 31.1883 52.5271 28.2625C52.0131 25.3367 51.1435 21.5414 50.5748 19.8461C50.0115 18.1508 48.6224 14.7656 47.906 13.9945C47.1841 13.2289 48.6224 12.507 55.349 13.9453Z" fill="#D27856"/>
<path d="M16.3899 12.2008C12.436 11.9492 5.91728 15.0773 4.5829 18.3094C3.24853 21.5414 4.03056 32.0305 5.15165 35.0929C6.3329 38.325 8.79384 42.3828 13.054 38.8937C17.3142 35.4047 18.4407 26.6273 18.8563 23.8055C19.2665 20.9836 19.8298 17.5437 20.4477 16.8273C21.0657 16.1109 21.9352 15.0828 21.9352 15.0828C21.9352 15.0828 21.2681 12.507 16.3899 12.2008ZM56.2188 11.5336C59.9321 11.7906 63.9681 13.1742 65.4556 16.4117C66.9431 19.6437 66.3798 27.2945 65.8165 30.9367C65.2532 34.5789 63.9188 38.3797 60.5829 37.9695C57.247 37.5594 55.5517 33.0422 54.529 28.782C53.5009 24.5219 52.4235 20.2617 51.0892 17.1828C50.2852 15.3234 47.4962 13.9508 47.4962 13.9508C47.4962 13.9508 48.7267 11.0195 56.2188 11.5336Z" fill="#865B51"/>
<path d="M27.6171 37.018C27.3984 38.8883 26.4359 40.3977 24.3468 40.1789C22.8648 40.0203 21.8695 38.2539 22.0882 36.3781C22.307 34.5078 22.9578 33.1625 24.7078 33.1953C27.4257 33.2445 27.8359 35.1422 27.6171 37.018ZM49.0765 36.493C49.164 38.3742 48.4203 39.982 46.2492 40.1406C44.3624 40.2774 43.3945 38.6422 43.3124 36.7609C43.2249 34.8797 44.1601 33.3703 45.9593 33.1461C48.2945 32.8453 48.989 34.6117 49.0765 36.493ZM41.0812 45.9758C41.1687 47.857 39.8999 49.618 35.946 49.5688C32.096 49.5195 30.696 47.9609 30.6085 46.0797C30.521 44.1984 32.7085 42.5086 35.8421 42.4375C40.157 42.3281 40.9937 44.0891 41.0812 45.9758Z" fill="#2F2F2F"/>
<path d="M32.353 53.5719C32.353 53.5719 32.8179 58.0399 33.2772 59.3742C34.2507 62.1961 38.3522 61.7258 39.0796 59.068C39.6976 56.8094 39.2874 52.9102 39.2874 52.9102L35.6452 52.3961L32.353 53.5719Z" fill="#E94B8C"/>
<path d="M36.0717 55.0594C35.4318 55.0867 35.4537 55.6774 35.4537 57.0336C35.4537 58.3953 35.5303 59.2156 36.1482 59.1883C36.7662 59.1609 36.6896 58.1109 36.6896 57.1375C36.6896 56.1641 36.7389 55.032 36.0717 55.0594Z" fill="#EF87B2"/>
<path d="M27.4259 49.3336C26.6877 50.4219 28.1205 51.3844 29.3017 52.1828C30.483 52.9758 31.9158 54.1844 33.6111 54.157C35.5088 54.1297 36.0228 52.85 36.0228 52.85C36.0228 52.85 36.6408 54.3648 39.3314 54.0805C40.7697 53.9273 42.5416 52.314 43.0775 51.9531C44.1056 51.2586 45.3361 50.389 44.7947 49.6672C44.1767 48.8414 42.8697 49.9515 41.5353 50.6406C40.2009 51.3351 39.7416 51.6687 38.7408 51.6687C37.74 51.6687 37.0455 51.2586 36.9963 49.5906C36.9525 48.2289 36.9689 47.9719 36.9689 47.9719H34.683C34.683 47.9719 34.7595 49.4101 34.7595 49.8203C34.7595 50.8976 34.1963 51.3625 33.1189 51.4117C32.0416 51.4609 30.8877 50.564 30.3189 50.2305C29.7611 49.9023 28.0166 48.464 27.4259 49.3336Z" fill="#2F2F30"/>
</svg>
