<svg width="16" height="14" viewBox="0 0 16 14" fill="none" xmlns="http://www.w3.org/2000/svg">
<path d="M8.00016 6.00016C5.51862 6.00016 2.00022 9.83637 2.00022 12.2579C2.00022 13.3485 2.83802 14.0001 4.24207 14.0001C5.7683 14.0001 6.77611 13.2163 8.00016 13.2163C9.23483 13.2163 10.2454 14.0001 11.7582 14.0001C13.1623 14.0001 14.0001 13.3485 14.0001 12.2579C14.0001 9.83637 10.4817 6.00016 8.00016 6.00016ZM3.3977 5.6061C3.07271 4.5233 2.07147 3.82206 1.16148 4.03955C0.251487 4.25705 -0.22257 5.3111 0.102426 6.3939C0.427423 7.4767 1.42866 8.17795 2.33865 7.96045C3.24864 7.74295 3.7227 6.6889 3.3977 5.6061V5.6061ZM6.04518 4.95673C7.01204 4.70236 7.49579 3.39612 7.12579 2.03926C6.75579 0.682401 5.67206 -0.211027 4.70519 0.0433449C3.73833 0.297717 3.25458 1.60395 3.62458 2.96081C3.99457 4.31767 5.07862 5.21142 6.04518 4.95673ZM14.8385 4.03987C13.9285 3.82237 12.9276 4.52361 12.6023 5.60641C12.2773 6.68921 12.7514 7.74326 13.6613 7.96076C14.5713 8.17826 15.5723 7.47702 15.8976 6.39422C16.2226 5.31141 15.7485 4.25736 14.8385 4.03987V4.03987ZM9.95513 4.95673C10.922 5.2111 12.0057 4.31767 12.3757 2.96081C12.7457 1.60395 12.262 0.29803 11.2951 0.0433449C10.3283 -0.21134 9.24452 0.682401 8.87452 2.03926C8.50453 3.39612 8.98827 4.70236 9.95513 4.95673V4.95673Z" fill="#ECA043"/>
</svg>
