<svg width="275" height="220" viewBox="0 0 275 220" fill="none" xmlns="http://www.w3.org/2000/svg">
<path d="M226.818 192.451H151.212V65.8329C159.984 61.9925 166.719 54.5694 169.847 45.4408L226.551 26.4277C230.151 25.2206 232.089 21.3243 230.881 17.7244L226.513 4.691C225.305 1.09113 221.409 -0.84627 217.809 0.360846L167.153 17.3421C161.221 7.02791 150.219 0 137.465 0C118.486 0 103.099 15.3875 103.099 34.3663C103.099 35.8398 103.352 37.2488 103.533 38.675L48.3792 57.1683C44.7793 58.3755 42.8419 62.2717 44.049 65.8716L48.4178 78.905C49.6249 82.5049 53.5212 84.4423 57.1211 83.2352L118.143 62.7743C119.891 63.9643 121.764 64.9738 123.723 65.8329V213.071C123.723 216.869 126.799 219.944 130.596 219.944H226.822C230.619 219.944 233.695 216.869 233.695 213.071V199.325C233.691 195.527 230.615 192.451 226.818 192.451ZM274.922 130.592C274.922 123.641 275.497 126.842 238.386 52.6191C230.804 37.4593 209.093 37.4292 201.498 52.6191C164.073 127.477 164.967 123.86 164.967 130.592H164.958C164.958 149.571 189.577 164.958 219.944 164.958C250.311 164.958 274.93 149.571 274.93 130.592H274.922ZM189.015 123.719L219.944 61.8593L250.874 123.719H189.015ZM73.4279 107.605C65.8458 92.4453 44.1349 92.4153 36.54 107.605C-0.884933 182.464 0.00859157 178.847 0.00859157 185.578H0C0 204.557 24.6192 219.944 54.9861 219.944C85.353 219.944 109.972 204.557 109.972 185.578H109.964C109.964 178.627 110.539 181.828 73.4279 107.605ZM24.0564 178.705L54.9861 116.845L85.9157 178.705H24.0564Z" fill="#5E6088"/>
<ellipse cx="137.5" cy="34.5" rx="17.5" ry="18.5" fill="#FECC42"/>
<ellipse cx="55.5" cy="197.5" rx="34.5" ry="11.5" fill="#FECC42"/>
<ellipse cx="220.5" cy="142.5" rx="34.5" ry="11.5" fill="#FECC42"/>
</svg>
