<svg width="317" height="325" viewBox="0 0 317 325" fill="none" xmlns="http://www.w3.org/2000/svg">
<path d="M28.1652 239.753C14.9672 216.287 8.0084 189.663 8.00001 162.549C7.99162 135.436 14.9339 108.807 28.1175 85.3323C41.3004 61.8592 60.2545 42.3747 83.0613 28.8117C105.867 15.2496 131.732 8.07837 158.067 8.00064C184.403 7.9229 210.308 14.9413 233.188 28.3683C256.07 41.7961 275.133 61.1679 288.447 84.5624C301.762 107.958 308.854 134.545 308.998 161.658C309.142 188.771 302.333 215.437 289.266 238.98" stroke="#C2D1CA" stroke-width="16"/>
<path d="M131.152 107.435H123.828L113.34 114.231V121.204L123.242 114.876H123.477V149.856H131.152V107.435ZM157.109 150.442C167.305 150.442 173.398 142.562 173.398 128.646C173.398 114.817 167.275 106.849 157.109 106.849C146.943 106.849 140.791 114.817 140.82 128.646C140.791 142.532 146.885 150.442 157.109 150.442ZM148.496 128.646C148.525 118.538 151.807 113.206 157.109 113.177C162.412 113.206 165.693 118.538 165.723 128.646C165.723 138.841 162.412 144.026 157.109 144.056C151.777 144.026 148.496 138.841 148.496 128.646ZM195.43 150.442C205.625 150.442 211.719 142.562 211.719 128.646C211.719 114.817 205.596 106.849 195.43 106.849C185.264 106.849 179.111 114.817 179.141 128.646C179.111 142.532 185.205 150.442 195.43 150.442ZM186.816 128.646C186.846 118.538 190.127 113.206 195.43 113.177C200.732 113.206 204.014 118.538 204.043 128.646C204.043 138.841 200.732 144.026 195.43 144.056C190.098 144.026 186.816 138.841 186.816 128.646Z" fill="#5E6088"/>
<path d="M87.1654 201.786H91.3011C90.9764 198.419 88.2421 196.249 83.8158 196.249C79.287 196.249 76.3133 198.488 76.3304 201.923C76.3133 204.572 78.1078 206.383 81.5599 207.084L84.5336 207.733C86.3793 208.126 87.2167 208.81 87.2337 209.887C87.2167 211.271 85.8495 212.125 83.7474 212.108C81.7137 212.125 80.4833 211.339 80.2269 209.75H75.7836C76.245 213.305 79.0306 215.424 83.7474 215.424C88.6009 215.424 91.66 212.997 91.6771 209.511C91.66 206.845 89.951 205.221 86.4476 204.452L83.3031 203.803C81.4232 203.358 80.6542 202.641 80.6712 201.684C80.6542 200.419 82.0213 199.479 83.8841 199.496C85.7298 199.479 86.892 200.385 87.1654 201.786ZM106.853 207.255C106.853 210.092 104.802 211.493 102.888 211.493C100.769 211.493 99.3675 209.989 99.3675 207.631V196.488H94.9925V208.314C95.0096 212.758 97.5389 215.287 101.213 215.287C103.982 215.287 105.93 213.834 106.785 211.767H106.99V215.048H111.194V196.488H106.853V207.255ZM115.364 215.048H119.739V204.11C119.739 201.769 121.516 200.094 123.943 200.077C124.661 200.094 125.566 200.214 125.959 200.351V196.317C125.549 196.266 124.866 196.215 124.387 196.215C122.251 196.215 120.473 197.428 119.807 199.564H119.602V196.488H115.364V215.048ZM136.179 215.424C140.486 215.424 143.459 213.305 144.245 210.092H139.973C139.409 211.203 138.127 212.023 136.213 212.006C133.393 212.023 131.531 210.143 131.462 206.981H144.416V205.614C144.416 199.103 140.486 196.249 135.94 196.249C130.642 196.249 127.156 200.146 127.156 205.888C127.156 211.698 130.591 215.424 136.179 215.424ZM131.479 204.008C131.633 201.649 133.393 199.633 136.008 199.633C138.52 199.633 140.229 201.479 140.246 204.008H131.479ZM166.633 201.786H170.769C170.444 198.419 167.71 196.249 163.284 196.249C158.755 196.249 155.781 198.488 155.798 201.923C155.781 204.572 157.576 206.383 161.028 207.084L164.001 207.733C165.847 208.126 166.684 208.81 166.702 209.887C166.684 211.271 165.317 212.125 163.215 212.108C161.182 212.125 159.951 211.339 159.695 209.75H155.251C155.713 213.305 158.498 215.424 163.215 215.424C168.069 215.424 171.128 212.997 171.145 209.511C171.128 206.845 169.419 205.221 165.915 204.452L162.771 203.803C160.891 203.358 160.122 202.641 160.139 201.684C160.122 200.419 161.489 199.479 163.352 199.496C165.198 199.479 166.36 200.385 166.633 201.786ZM182.561 215.424C187.226 215.424 190.2 212.638 190.525 208.725H186.355C185.962 210.724 184.526 211.852 182.595 211.869C179.861 211.852 178.083 209.579 178.083 205.751C178.083 202.008 179.895 199.752 182.595 199.735C184.714 199.752 186.013 201.103 186.355 202.88H190.525C190.217 198.881 187.056 196.249 182.561 196.249C177.126 196.249 173.674 200.163 173.674 205.854C173.674 211.459 177.024 215.424 182.561 215.424ZM201.907 215.424C207.341 215.424 210.81 211.579 210.793 205.854C210.81 200.077 207.341 196.249 201.907 196.249C196.489 196.249 193.02 200.077 193.02 205.854C193.02 211.579 196.489 215.424 201.907 215.424ZM197.429 205.819C197.429 202.418 198.916 199.684 201.941 199.701C204.914 199.684 206.401 202.418 206.384 205.819C206.401 209.22 204.914 211.938 201.941 211.938C198.916 211.938 197.429 209.22 197.429 205.819ZM214.177 215.048H218.552V204.11C218.552 201.769 220.329 200.094 222.756 200.077C223.474 200.094 224.38 200.214 224.773 200.351V196.317C224.363 196.266 223.679 196.215 223.201 196.215C221.064 196.215 219.287 197.428 218.62 199.564H218.415V196.488H214.177V215.048ZM234.993 215.424C239.299 215.424 242.273 213.305 243.059 210.092H238.786C238.223 211.203 236.941 212.023 235.027 212.006C232.207 212.023 230.344 210.143 230.276 206.981H243.23V205.614C243.23 199.103 239.299 196.249 234.753 196.249C229.455 196.249 225.969 200.146 225.969 205.888C225.969 211.698 229.404 215.424 234.993 215.424ZM230.293 204.008C230.447 201.649 232.207 199.633 234.822 199.633C237.334 199.633 239.043 201.479 239.06 204.008H230.293Z" fill="#BBB7B7"/>
<path d="M28.1652 239.753C14.9368 216.233 7.9769 189.541 8.00006 162.365C8.02322 135.189 15.0286 108.509 28.297 85.0135C41.5648 61.5188 60.6205 42.0463 83.5268 28.536C106.431 15.0267 132.387 7.94926 158.783 8.00027C185.18 8.05129 211.109 15.229 233.964 28.8269C256.821 42.4259 275.805 61.9722 288.987 85.5183C302.169 109.066 309.076 135.772 308.999 162.948C308.923 190.124 301.865 216.789 288.55 240.257" stroke="#FECC42" stroke-width="16"/>
</svg>
